<?xml version="1.0" encoding="UTF-8" standalone="no"?>
<!-- Created with Inkscape (http://www.inkscape.org/) -->

<svg
   xmlns:dc="http://purl.org/dc/elements/1.1/"
   xmlns:cc="http://creativecommons.org/ns#"
   xmlns:rdf="http://www.w3.org/1999/02/22-rdf-syntax-ns#"
   xmlns:svg="http://www.w3.org/2000/svg"
   xmlns="http://www.w3.org/2000/svg"
   xmlns:sodipodi="http://sodipodi.sourceforge.net/DTD/sodipodi-0.dtd"
   xmlns:inkscape="http://www.inkscape.org/namespaces/inkscape"
   id="svg2"
   sodipodi:version="0.32"
   inkscape:version="0.48.0 r9654"
   width="32"
   height="32"
   version="1.0"
   sodipodi:docname="logo.svg"
   inkscape:export-filename="logo-128.png"
   inkscape:export-xdpi="360"
   inkscape:export-ydpi="360"
   inkscape:output_extension="org.inkscape.output.svg.inkscape">
  <metadata
     id="metadata7">
    <rdf:RDF>
      <cc:Work
         rdf:about="">
        <dc:format>image/svg+xml</dc:format>
        <dc:type
           rdf:resource="http://purl.org/dc/dcmitype/StillImage" />
        <dc:title></dc:title>
      </cc:Work>
    </rdf:RDF>
  </metadata>
  <defs
     id="defs5">
    <inkscape:perspective
       sodipodi:type="inkscape:persp3d"
       inkscape:vp_x="0 : 600 : 1"
       inkscape:vp_y="0 : 1000 : 0"
       inkscape:vp_z="1600 : 600 : 1"
       inkscape:persp3d-origin="800 : 400 : 1"
       id="perspective24" />
    <clipPath
       id="clipPath3901"
       clipPathUnits="userSpaceOnUse">
      <rect
         style="fill:#55c4cb;fill-opacity:0.41237117;fill-rule:evenodd;stroke:none;stroke-width:1;stroke-miterlimit:4;stroke-dasharray:6, 2;stroke-dashoffset:0;stroke-opacity:1"
         id="rect3903"
         width="444.28568"
         height="585.91718"
         x="101.01015"
         y="339.92349"
         ry="290.4332"
         rx="68.643211" />
    </clipPath>
    <marker
       style="overflow:visible"
       id="Arrow1Mend"
       refX="0"
       refY="0"
       orient="auto"
       inkscape:stockid="Arrow1Mend">
      <path
         transform="matrix(-0.4,0,0,-0.4,-4,0)"
         style="fill-rule:evenodd;stroke:#000000;stroke-width:1pt;marker-start:none"
         d="M 0,0 L 5,-5 L -12.5,0 L 5,5 L 0,0 z"
         id="path3641" />
    </marker>
    <marker
       style="overflow:visible"
       id="Arrow1Lend"
       refX="0"
       refY="0"
       orient="auto"
       inkscape:stockid="Arrow1Lend">
      <path
         transform="matrix(-0.8,0,0,-0.8,-10,0)"
         style="fill-rule:evenodd;stroke:#000000;stroke-width:1pt;marker-start:none"
         d="M 0,0 L 5,-5 L -12.5,0 L 5,5 L 0,0 z"
         id="path3635" />
    </marker>
  </defs>
  <sodipodi:namedview
     inkscape:window-height="822"
     inkscape:window-width="1432"
     inkscape:pageshadow="2"
     inkscape:pageopacity="0.0"
     guidetolerance="10.0"
     gridtolerance="10.0"
     objecttolerance="10.0"
     borderopacity="1.0"
     bordercolor="#666666"
     pagecolor="#ffffff"
     id="base"
     inkscape:zoom="11.385542"
     inkscape:cx="18.33638"
     inkscape:cy="10.78494"
     inkscape:window-x="0"
     inkscape:window-y="25"
     inkscape:current-layer="g2415"
     showgrid="false"
     inkscape:window-maximized="0" />
  <g
     id="g2411"
     transform="matrix(1.3730418,0,0,1.3730418,-2.9057444,-11.599788)">
    <g
       id="g2415">
      <g
         id="g3207"
         transform="matrix(0.7473697,0,0,0.7473697,3.5703641,8.2470486)">
        <path
           style="opacity:1;fill:#909090;fill-opacity:1"
           d="M 11.847115,30.266157 C 11.947154,30.099349 11.941754,29.731046 12.057424,29.509259 C 12.343659,28.960425 12.323825,28.804345 11.952703,28.685151 C 11.712538,28.608018 11.689701,28.568627 11.858268,28.522255 C 11.980548,28.488616 12.166594,28.24192 12.271701,27.97404 C 12.476298,27.452603 12.47896,27.451074 12.897866,27.614858 C 13.147027,27.712276 13.136039,27.732543 12.786521,27.820267 C 12.433152,27.908957 12.373753,28.190909 12.708439,28.190909 C 12.78587,28.190909 12.810068,28.127556 12.762214,28.050125 C 12.605528,27.796604 12.923708,27.902664 13.184568,28.190909 C 13.329073,28.350585 13.368993,28.472478 13.276779,28.472478 C 13.187345,28.472478 13.114175,28.54639 13.114175,28.636727 C 13.114175,28.727063 13.153394,28.761756 13.201327,28.713824 C 13.49937,28.415779 14.055394,29.782681 13.962171,30.584246 L 13.88849,31.217776 L 13.045485,31.288168 C 11.898629,31.669686 11.555684,30.752096 11.847115,30.266157 z M 13.312717,27.680319 C 13.361055,27.554358 13.328397,27.364299 13.240149,27.257965 C 13.061605,27.042831 13.221598,27.003199 13.515867,27.189669 C 13.664468,27.283835 13.671122,27.376279 13.546111,27.609868 C 13.35817,27.961036 13.184929,28.013331 13.312717,27.680319 z M 13.747706,27.627771 C 13.79556,27.55034 13.862652,27.486987 13.896799,27.486987 C 13.930945,27.486987 13.958882,27.55034 13.958882,27.627771 C 13.958882,27.705203 13.891789,27.768556 13.809789,27.768556 C 13.727787,27.768556 13.699849,27.705203 13.747706,27.627771 z M 12.352313,27.012557 C 12.416315,26.845767 12.382504,26.802549 12.232917,26.859951 C 12.118142,26.903995 11.989224,26.848796 11.946433,26.737289 C 11.901071,26.619076 11.418456,26.434392 10.788883,26.294325 C 9.7153546,26.055488 9.7107946,26.052552 9.9979204,25.785053 C 10.50253,25.356538 10.504283,26.212921 11.589396,26.110002 C 12.094325,26.008735 10.695765,23.555302 9.2181376,21.950205 C 8.802698,21.498929 8.3382302,20.885535 8.1859844,20.587109 C 8.0337373,20.288681 7.8478046,20.006585 7.7728002,19.960231 C 7.6977987,19.913876 7.465089,19.561136 7.2556706,19.176364 C 7.0271591,18.756513 6.7781577,18.476779 6.6329512,18.476779 C 6.3200816,18.476779 6.1288512,18.229046 6.035245,17.702464 C 5.9939515,17.470169 5.7231342,16.710854 5.4334278,16.015097 C 2.5486366,9.0870057 5.1391699,2.4577339 11.377289,0.80452971 C 11.829272,0.68474745 12.927635,0.55015043 13.818098,0.50542601 C 15.774215,0.40717673 17.188945,0.70167115 18.956731,1.575101 C 22.231233,3.1929697 24.123589,6.6565782 23.915448,10.651124 C 23.785179,13.151164 23.095775,15.030489 21.360953,17.614716 C 19.391786,20.548024 18.630384,21.229207 16.324235,22.12078 L 15.123495,22.584994 L 15.039661,23.482776 C 14.96049,24.330601 15.101195,25.125308 15.385942,25.438572 C 15.55303,25.622396 15.539329,26.079142 15.366726,26.079142 C 15.289295,26.079142 15.225942,26.142495 15.225942,26.219926 C 15.225942,26.297358 15.327839,26.360711 15.452382,26.360711 C 15.621788,26.360711 15.657224,26.446752 15.593079,26.702333 C 15.539411,26.916156 15.573202,27.066596 15.683404,27.104479 C 15.780242,27.137769 15.732766,27.143287 15.577903,27.116742 C 15.42304,27.090197 15.147012,27.067612 14.964508,27.066555 C 14.726866,27.065179 14.655825,27.004317 14.714224,26.852133 C 14.773042,26.698857 14.686026,26.720768 14.402006,26.930753 C 14.064168,27.180527 13.955346,27.19777 13.635771,27.052162 C 13.347852,26.920977 13.217521,26.920443 13.061643,27.049811 C 12.904661,27.180095 12.846433,27.176883 12.798798,27.035313 C 12.749765,26.889577 12.690479,26.892365 12.500317,27.04935 C 12.293026,27.220475 12.274313,27.215823 12.352313,27.012557 z M 14.414277,25.177945 C 14.471163,25.092867 14.51868,24.757747 14.519865,24.433233 C 14.52105,24.108719 14.585372,23.804053 14.662805,23.756197 C 14.875857,23.624524 14.836603,22.841098 14.616953,22.841098 C 14.342819,22.841098 13.820393,23.447064 13.692155,23.913777 C 13.597477,24.25836 13.519193,24.312565 13.171468,24.274301 C 12.946379,24.249533 12.741095,24.170342 12.715285,24.098321 C 12.689475,24.026299 12.606546,23.967374 12.530995,23.967374 C 12.455448,23.967374 12.438432,24.039857 12.493185,24.128447 C 12.547936,24.217037 12.587867,24.460675 12.581919,24.669865 C 12.572169,25.012717 12.636033,25.063139 13.229796,25.181394 C 14.121926,25.359073 14.293496,25.358573 14.414277,25.177945 z"
           id="path2567"
           sodipodi:nodetypes="csssssssssssscccscsssccsssccsssccsssssssssssscccssssssssssssssccssssssssssc" />
        <path
           style="opacity:1;fill:#3f3f3f;fill-opacity:1"
           d="M 11.996058,31.099173 C 11.829269,30.932462 11.990062,29.87386 12.240872,29.487399 C 12.404823,29.234774 12.416169,29.090191 12.293217,28.820341 C 12.084172,28.36154 12.220772,27.975236 12.507817,28.213459 C 12.670639,28.348592 12.740272,28.342033 12.843337,28.181857 C 12.954909,28.008457 12.991548,28.007929 13.10115,28.178143 C 13.171416,28.287268 13.198776,28.45508 13.161944,28.55106 C 13.125114,28.647038 13.16265,28.767389 13.245363,28.818508 C 13.328072,28.869626 13.395744,29.038154 13.395744,29.193017 C 13.395744,29.34788 13.459216,29.43536 13.536791,29.387414 C 13.871896,29.180309 14.071276,30.800361 13.750198,31.121422 C 13.612189,31.259424 12.137674,31.240721 11.996058,31.099173 z M 13.25486,29.563558 C 13.254915,29.505484 13.144092,29.457 13.008587,29.455814 C 12.799529,29.453984 12.79402,29.433549 12.972214,29.320892 C 13.137926,29.216126 13.145842,29.151755 13.009756,29.015668 C 12.804068,28.809979 12.759199,28.849268 12.642307,29.337421 C 12.563339,29.667205 12.593157,29.707313 12.90397,29.689383 C 13.096904,29.678252 13.254805,29.621632 13.25486,29.563558 z M 13.872698,27.07166 C 13.80395,27.00772 13.374114,26.916659 12.917502,26.8693 C 12.460889,26.821942 12.005631,26.715417 11.905814,26.632577 C 11.805999,26.549736 11.54606,26.422973 11.328172,26.35088 C 10.97246,26.233184 10.987182,26.226297 11.472397,26.283424 C 11.939467,26.338415 11.998962,26.314547 11.910934,26.107505 C 11.584579,25.339933 11.463176,24.877064 11.577318,24.835546 C 11.791495,24.757638 11.724603,23.96555 11.496453,23.878 C 11.381021,23.833705 11.058726,23.487071 10.780244,23.107703 C 10.501764,22.728334 10.136899,22.380657 9.9694354,22.335086 C 9.8019709,22.289516 9.4715497,21.957093 9.2351668,21.596369 C 8.9987826,21.235645 8.724823,20.957915 8.6263668,20.979192 C 8.5279106,21.000467 8.4874829,20.952953 8.5365238,20.873604 C 8.5855646,20.794253 8.5691252,20.729331 8.4999958,20.729331 C 8.3756198,20.729331 7.5210226,19.539272 7.2161045,18.941467 C 7.1292447,18.771173 6.8844641,18.547254 6.6721512,18.44387 C 6.3293255,18.276935 6.2910828,18.189901 6.3304053,17.666146 C 6.3547582,17.341781 6.3091694,16.963846 6.2290968,16.82629 C 6.09361,16.593537 6.0824007,16.59572 6.0675128,16.857757 C 5.6057129,16.627591 5.7880668,16.24275 6.0806663,15.918538 C 6.9179033,16.561566 9.5565525,16.50262 9.8807426,15.936211 C 10.232114,15.32231 9.8897345,11.915901 9.4847482,11.57587 C 9.3518138,11.464259 8.5251723,11.484954 7.9936714,11.83729 C 7.6510582,12.064409 7.6804456,12.595572 7.2648582,12.762948 C 6.9228054,12.90071 6.3275629,12.404614 5.9921339,12.41331 C 5.6030844,12.423397 5.4898993,12.940707 5.3606803,13.193101 C 5.352419,13.40986 4.8056965,13.86391 4.6582402,13.267752 C 4.0881179,5.679148 7.6193409,0.43357241 14.853862,0.77808053 C 16.742053,0.93079933 19.80607,2.1506238 21.146934,3.8399533 C 22.876827,6.0194185 23.755258,9.6573716 23.078624,12.483896 C 22.587976,14.466908 22.175535,16.464809 20.154905,19.170241 C 18.842162,20.927882 18.101676,21.44696 15.613099,22.354034 C 15.194713,22.506535 14.943566,22.682854 14.942219,22.825029 C 14.940425,23.014112 14.918799,23.018681 14.813449,22.85223 C 14.618334,22.543956 13.976755,23.029804 13.696067,23.698391 C 13.508366,24.145485 13.395026,24.246343 13.078979,24.247511 C 12.828059,24.248439 12.691822,24.174631 12.691822,24.037766 C 12.691822,23.921619 12.622899,23.82659 12.538661,23.82659 C 12.439599,23.82659 12.414172,24.037923 12.46667,24.424924 L 12.547837,25.023258 L 12.353024,24.46012 L 12.158208,23.896982 L 12.143444,24.483584 C 12.135125,24.814266 12.051906,25.097091 11.952703,25.131855 C 11.855914,25.165773 12.362737,25.24113 13.078979,25.299317 C 13.79522,25.357504 14.381236,25.468517 14.381236,25.546012 C 14.381236,25.623508 14.476264,25.650447 14.592413,25.605876 C 14.708558,25.561307 14.803589,25.581799 14.803589,25.651414 C 14.803589,25.721031 14.9367,25.798234 15.099395,25.822977 C 15.358095,25.862322 15.307549,25.95075 14.696444,26.527939 C 14.31213,26.890925 13.941445,27.135598 13.872698,27.07166 z M 14.907502,25.318235 C 14.791355,25.202088 14.647013,25.151556 14.58674,25.205943 C 14.526471,25.260329 14.518929,25.188778 14.56998,25.046939 C 14.621034,24.905102 14.667248,24.588337 14.672677,24.343017 C 14.681396,23.949082 14.713213,23.987128 14.945064,24.668746 C 15.232899,25.514942 15.225863,25.636595 14.907502,25.318235 z M 10.157701,22.832789 C 10.157701,22.750788 10.221053,22.72285 10.298485,22.770706 C 10.375915,22.818561 10.43927,22.885654 10.43927,22.919799 C 10.43927,22.953945 10.375915,22.981883 10.298485,22.981883 C 10.221053,22.981883 10.157701,22.91479 10.157701,22.832789 z"
           id="path2565"
           sodipodi:nodetypes="cssssssssssccsssssccsssssssssssssssssccssssscccscsssssssscccccsssssssccssssccsssc" />
      </g>
    </g>
  </g>
  <flowRoot
     xml:space="preserve"
     id="flowRoot3596"
     style="font-size:144px;font-family:hlv"
     transform="translate(-752.6089,-418.0564)"><flowRegion
       id="flowRegion3598"><rect
         id="rect3600"
         width="375.71429"
         height="158.57143"
         x="44.285713"
         y="210.93361"
         style="font-size:144px;font-family:hlv" /></flowRegion><flowPara
       id="flowPara3602">HFRR</flowPara></flowRoot></svg>
